<svg width="27" height="21" viewBox="0 0 27 21" fill="none" xmlns="http://www.w3.org/2000/svg">
<path d="M6.75 0C4.89375 0 3.24 0.708211 1.99125 1.81672C0.77625 2.92522 0 4.43402 0 6.15836C0 7.85191 0.77625 9.3607 1.99125 10.5L13.5 21L25.0087 10.5C26.2237 9.3915 27 7.8827 27 6.15836C27 4.46481 26.2237 2.95601 25.0087 1.81672C23.7937 0.708211 22.14 0 20.25 0C18.3937 0 16.74 0.708211 15.4913 1.81672C14.2763 2.92522 13.5 4.43402 13.5 6.15836C13.5 4.46481 12.7238 2.95601 11.5087 1.81672C10.2937 0.708211 8.64 0 6.75 0Z" fill="#675D5D"/>
</svg>
